# xmcd
#
# Track frame offsets: 
#        150
#        43534
#        73283
#        88887
#        141326
#        163955
#        182272
#        203069
#        217485
#        263607
#        277213
#        296176
#
# Disc length: 4337 seconds
#
# Revision: 0
# Processed by: cddbd v1.5.2PL0 Copyright (c) Steve Scherf et al.
# Submitted via: ExactAudioCopyFreeDBPlugin 1.0
#
DISCID=ce10ef0c
DTITLE=Shri - Shri Live In Europe 2004 CD2
DYEAR=2004
DGENRE=Blues
TTITLE0=Help Me
TTITLE1=What You Need Me For?
TTITLE2=Done Me Wrong
TTITLE3=Voodoo Chile
TTITLE4=Operator
TTITLE5=Cannot Hide From The Blues
TTITLE6=Trial
TTITLE7=First Time I Met The Blues
TTITLE8=All Along The Watchtower
TTITLE9=Two Hands
TTITLE10=I Learned My Lesson Good
TTITLE11=Smokestack Ligthnin
EXTD=
EXTT0=
EXTT1=
EXTT2=
EXTT3=
EXTT4=
EXTT5=
EXTT6=
EXTT7=
EXTT8=
EXTT9=
EXTT10=
EXTT11=
PLAYORDER=
